<svg width="17" height="17" viewBox="0 0 17 17" fill="none" xmlns="http://www.w3.org/2000/svg">
<path fill-rule="evenodd" clip-rule="evenodd" d="M11.4842 10.8333H12.2083L16.7825 15.4167L15.4167 16.7825L10.8333 12.2083V11.4842L10.5858 11.2275C9.54083 12.1258 8.18417 12.6667 6.70833 12.6667C3.4175 12.6667 0.75 9.99917 0.75 6.70833C0.75 3.4175 3.4175 0.75 6.70833 0.75C9.99917 0.75 12.6667 3.4175 12.6667 6.70833C12.6667 8.18417 12.1258 9.54083 11.2275 10.5858L11.4842 10.8333ZM2.58333 6.70833C2.58333 8.99083 4.42583 10.8333 6.70833 10.8333C8.99083 10.8333 10.8333 8.99083 10.8333 6.70833C10.8333 4.42583 8.99083 2.58333 6.70833 2.58333C4.42583 2.58333 2.58333 4.42583 2.58333 6.70833Z" fill="#232323"/>
</svg>
